<mxfile host="61f4adb0-1044-47c4-9ef8-990267215c5e" modified="2020-08-01T22:02:34.047Z" agent="5.0 (Windows NT 10.0; Win64; x64) AppleWebKit/537.36 (KHTML, like Gecko) Code/1.47.3 Chrome/78.0.3904.130 Electron/7.3.2 Safari/537.36" etag="xWYQ5lGcBK9W99ajZt-j" version="13.1.3" pages="2">
    <diagram name="Page-1" id="c7558073-3199-34d8-9f00-42111426c3f3">
        <mxGraphModel dx="867" dy="2145" grid="0" gridSize="11" guides="1" tooltips="1" connect="1" arrows="1" fold="1" page="0" pageScale="1" pageWidth="1600" pageHeight="1200" background="#ffffff" math="0" shadow="0" extFonts="Quicksand^https://fonts.googleapis.com/css?family=Quicksand|Source Sans Pro^https://fonts.googleapis.com/css?family=Source+Sans+Pro|Montserrat^https://fonts.googleapis.com/css?family=Montserrat|Raleway^https://fonts.googleapis.com/css?family=Raleway">
            <root>
                <mxCell id="0"/>
                <mxCell id="1" parent="0"/>
                <mxCell id="118" value="" style="edgeStyle=orthogonalEdgeStyle;rounded=1;orthogonalLoop=1;jettySize=auto;html=1;shadow=0;strokeColor=#000000;fontFamily=Raleway;fontSize=12;fontColor=#FFFFFF;opacity=60;" parent="1" source="108" target="117" edge="1">
                    <mxGeometry relative="1" as="geometry"/>
                </mxCell>
                <mxCell id="108" value="Opens app" style="rounded=1;whiteSpace=wrap;html=1;absoluteArcSize=1;arcSize=14;strokeWidth=2;fontColor=#ffffff;fillColor=#1ba1e2;strokeColor=#006EAF;perimeterSpacing=5;fontFamily=Montserrat;fontSize=17;" parent="1" vertex="1">
                    <mxGeometry x="728.43" y="-1133" width="145" height="110.23" as="geometry"/>
                </mxCell>
                <mxCell id="134" value="" style="edgeStyle=orthogonalEdgeStyle;rounded=1;orthogonalLoop=1;jettySize=auto;html=1;shadow=0;strokeColor=#000000;fontFamily=Montserrat;fontSize=14;fontColor=#4D4D4D;opacity=60;" parent="1" source="117" target="133" edge="1">
                    <mxGeometry relative="1" as="geometry"/>
                </mxCell>
                <mxCell id="135" style="edgeStyle=orthogonalEdgeStyle;rounded=1;orthogonalLoop=1;jettySize=auto;html=1;shadow=0;strokeColor=#000000;fontFamily=Montserrat;fontSize=14;fontColor=#4D4D4D;opacity=60;" parent="1" source="117" target="120" edge="1">
                    <mxGeometry relative="1" as="geometry"/>
                </mxCell>
                <mxCell id="117" value="Decision" style="shape=rhombus;dashed=0;whitespace=wrap;perimeter=rhombusPerimeter;rounded=1;shadow=0;labelBackgroundColor=none;strokeColor=#943B3B;strokeWidth=1;gradientColor=none;fontFamily=Montserrat;fontSize=17;fontColor=#FFFFFF;aspect=fixed;fillColor=#FF6666;perimeterSpacing=2;html=1;comic=0;" parent="1" vertex="1">
                    <mxGeometry x="728.43" y="-948" width="145" height="145" as="geometry"/>
                </mxCell>
                <mxCell id="137" value="" style="edgeStyle=orthogonalEdgeStyle;rounded=1;orthogonalLoop=1;jettySize=auto;html=1;shadow=0;strokeColor=#000000;fontFamily=Montserrat;fontSize=14;fontColor=#4D4D4D;opacity=60;" parent="1" source="133" target="136" edge="1">
                    <mxGeometry relative="1" as="geometry"/>
                </mxCell>
                <mxCell id="133" value="Login" style="shape=rhombus;dashed=0;whitespace=wrap;perimeter=rhombusPerimeter;rounded=1;shadow=0;labelBackgroundColor=none;strokeColor=#006EAF;strokeWidth=2;gradientColor=none;fontFamily=Montserrat;fontSize=17;fontColor=#FFFFFF;aspect=fixed;fillColor=#1BA1E2;perimeterSpacing=2;html=1;comic=0;" parent="1" vertex="1">
                    <mxGeometry x="728.4299999999998" y="-728" width="145" height="145" as="geometry"/>
                </mxCell>
                <mxCell id="136" value="Dashboard" style="shape=rhombus;dashed=0;whitespace=wrap;perimeter=rhombusPerimeter;rounded=1;shadow=0;labelBackgroundColor=none;strokeColor=#528A52;strokeWidth=2;gradientColor=none;fontFamily=Montserrat;fontSize=17;fontColor=#FFFFFF;aspect=fixed;fillColor=#72BD72;perimeterSpacing=2;html=1;comic=0;" parent="1" vertex="1">
                    <mxGeometry x="728.4299999999998" y="-503" width="145" height="145" as="geometry"/>
                </mxCell>
                <mxCell id="141" style="edgeStyle=orthogonalEdgeStyle;rounded=1;orthogonalLoop=1;jettySize=auto;html=1;entryX=0;entryY=0.5;entryDx=0;entryDy=0;shadow=0;strokeColor=#000000;fontFamily=Montserrat;fontSize=14;fontColor=#4D4D4D;opacity=60;" parent="1" source="120" target="133" edge="1">
                    <mxGeometry relative="1" as="geometry"/>
                </mxCell>
                <mxCell id="120" value="Register" style="shape=rhombus;dashed=0;whitespace=wrap;perimeter=rhombusPerimeter;rounded=1;shadow=0;labelBackgroundColor=none;strokeColor=#006EAF;strokeWidth=2;gradientColor=none;fontFamily=Montserrat;fontSize=17;fontColor=#FFFFFF;fillColor=#1BA1E2;perimeterSpacing=2;html=1;comic=0;aspect=fixed;" parent="1" vertex="1">
                    <mxGeometry x="486" y="-728" width="145" height="145" as="geometry"/>
                </mxCell>
                <mxCell id="128" value="&amp;nbsp; Yes&amp;nbsp;&amp;nbsp;" style="edgeLabel;align=center;verticalAlign=middle;resizable=0;points=[];fontSize=13;fontFamily=Montserrat;fontColor=#4D4D4D;labelBackgroundColor=#ffffff;fontStyle=1;shadow=1;spacing=2;backgroundOutline=0;html=1;spacingRight=0;" parent="1" vertex="1" connectable="0">
                    <mxGeometry x="-0.1769" relative="1" as="geometry">
                        <mxPoint x="954" y="-879" as="offset"/>
                    </mxGeometry>
                </mxCell>
            </root>
        </mxGraphModel>
    </diagram>
    <diagram id="8CEEVhHdrYcfBYLD39C3" name="Page-2">
        <mxGraphModel dx="1267" dy="945" grid="1" gridSize="10" guides="1" tooltips="1" connect="1" arrows="1" fold="0" page="0" pageScale="1" pageWidth="1920" pageHeight="1200" background="#ffffff" math="0" shadow="0" extFonts="Raleway^https://fonts.googleapis.com/css?family=Raleway|Montserrat^https://fonts.googleapis.com/css?family=Montserrat|Source Sans Pro^https://fonts.googleapis.com/css?family=Source+Sans+Pro">
            <root>
                <mxCell id="LCZgg48_w_wdhoS0fF2G-0"/>
                <mxCell id="LCZgg48_w_wdhoS0fF2G-1" parent="LCZgg48_w_wdhoS0fF2G-0"/>
            </root>
        </mxGraphModel>
    </diagram>
</mxfile>